<svg width="33" height="22" viewBox="0 0 33 22" fill="none" xmlns="http://www.w3.org/2000/svg">
<rect x="1" y="1" width="31" height="20" rx="5" stroke="#AFAFD0" stroke-width="2"/>
<path d="M1 7C1 3.68629 3.68629 1 7 1L26 1C29.3137 1 32 3.68629 32 7V15C32 18.3137 29.3137 21 26 21H7C3.68629 21 1 18.3137 1 15V7Z" fill="white" fill-opacity="0.23"/>
<path d="M27.3536 11.3536C27.5488 11.1583 27.5488 10.8417 27.3536 10.6464L24.1716 7.46447C23.9763 7.2692 23.6597 7.2692 23.4645 7.46447C23.2692 7.65973 23.2692 7.97631 23.4645 8.17157L26.2929 11L23.4645 13.8284C23.2692 14.0237 23.2692 14.3403 23.4645 14.5355C23.6597 14.7308 23.9763 14.7308 24.1716 14.5355L27.3536 11.3536ZM19 11.5L27 11.5L27 10.5L19 10.5L19 11.5Z" fill="white"/>
</svg>
