<?xml version="1.0" encoding="UTF-8" standalone="no"?>
<svg
   xmlns:dc="http://purl.org/dc/elements/1.1/"
   xmlns:cc="http://creativecommons.org/ns#"
   xmlns:rdf="http://www.w3.org/1999/02/22-rdf-syntax-ns#"
   xmlns:svg="http://www.w3.org/2000/svg"
   xmlns="http://www.w3.org/2000/svg"
   xmlns:sodipodi="http://sodipodi.sourceforge.net/DTD/sodipodi-0.dtd"
   xmlns:inkscape="http://www.inkscape.org/namespaces/inkscape"
   id="Layer_1"
   data-name="Layer 1"
   viewBox="0 0 305.54 152.37"
   version="1.1"
   sodipodi:docname="Preville-Logo-white.svg"
   inkscape:version="0.92.3 (2405546, 2018-03-11)">
  <metadata
     id="metadata1053">
    <rdf:RDF>
      <cc:Work
         rdf:about="">
        <dc:format>image/svg+xml</dc:format>
        <dc:type
           rdf:resource="http://purl.org/dc/dcmitype/StillImage" />
        <dc:title></dc:title>
      </cc:Work>
    </rdf:RDF>
  </metadata>
  <sodipodi:namedview
     pagecolor="#ffffff"
     bordercolor="#666666"
     borderopacity="1"
     objecttolerance="10"
     gridtolerance="10"
     guidetolerance="10"
     inkscape:pageopacity="0"
     inkscape:pageshadow="2"
     inkscape:window-width="1602"
     inkscape:window-height="1190"
     id="namedview1051"
     showgrid="false"
     inkscape:zoom="3.2892583"
     inkscape:cx="152.77"
     inkscape:cy="76.184998"
     inkscape:window-x="1892"
     inkscape:window-y="558"
     inkscape:window-maximized="0"
     inkscape:current-layer="Layer_1" />
  <defs
     id="defs964">
    <style
       id="style962">.cls-1{fill:#71baff;}.cls-2{fill:#edff84;}.cls-3,.cls-4{fill:#fff;}.cls-3{stroke:#000;stroke-miterlimit:10;stroke-width:1.34px;}</style>
  </defs>
  <path
     class="cls-1"
     d="M135.22,158.42c9.95,3.39,16.13,13.36,18.31,19.85,6.68,19.78-11.32,43.95-29.63,54.54-24.32,14.05-57.49,9-78.47-9.89-26.32-23.67-26.86-63.13-13.59-89.1C53,92.5,112,79.4,127.77,94.58c5.68,5.46,7.75,16.55,4.54,24.43-5.94,14.59-28.56,14.75-29.43,26.29-.41,5.21,3.89,9.28,4.28,9.64C114.18,161.4,123.92,154.59,135.22,158.42Z"
     transform="translate(-23.31 -88.46)"
     id="path966" />
  <path
     class="cls-2"
     d="M48.2,189.73c-2.24.51-4.19,14.16,2.48,25.37a30.48,30.48,0,0,0,14.75,12.5c3.92,1.65,10.24,3.34,11.7,1.23.9-1.3-.88-2.84-.18-4.72,1.39-3.68,9.52-1.12,13.73-4.82,6.08-5.34.56-20.76-.43-23.53-1.11-3.1-2.61-6.23-13.59-21.44-10.64-14.74-11.83-15.38-14-20.42a51.22,51.22,0,0,1-4.06-23.1c.33-4.67.77-11.05,4.65-17.07C70.84,102,86,100.19,85.75,99.62s-15.41.29-26.22,11.5c-7.45,7.74-9.2,17.11-9.81,20.63-2.07,12,1.57,21.75,3.32,26.3,2.14,5.54,3.33,6,12.09,23.8,3.15,6.39,5.41,11.24,3.36,13.75s-7,1.88-7.95,1.79a14.83,14.83,0,0,1-5.61-1.78C50.18,193,49.4,189.47,48.2,189.73Z"
     transform="translate(-23.31 -88.46)"
     id="path968" />
  <path
     class="cls-4"
     d="M143.24,174.89a15.37,15.37,0,0,1-4.63-.72,16.45,16.45,0,0,1-3.84-1.7q-.65,2.34-1.08,4.56a21.31,21.31,0,0,0-.45,4.23c0,3.17.45,5.46,1.33,6.86s1.74,2.09,2.54,2.09c.38,0,.76,0,1.13,0s.78,0,1.21,0a1.78,1.78,0,0,1,.69.12c.18.08.28.31.28.69s-.43.94-1.29,1.53a6.36,6.36,0,0,1-3.63.89A8,8,0,0,1,131,192a12.1,12.1,0,0,1-3.54-3.79,20.53,20.53,0,0,1-2.34-5.61,26.14,26.14,0,0,1-.85-6.81,45.61,45.61,0,0,1,.81-8.75,33.17,33.17,0,0,1,2.17-7.22,16.31,16.31,0,0,1,3.19-4.88,5.46,5.46,0,0,1,3.91-1.81,4.41,4.41,0,0,1,3.31,1.17,4.28,4.28,0,0,1,1.13,3.1,18.81,18.81,0,0,1-1,5.33c-.67,2.15-1.39,4.43-2.14,6.85.59.16,1.36.39,2.3.69a12.41,12.41,0,0,0,3.59.44,5.92,5.92,0,0,0,3.06-.85,8.3,8.3,0,0,0,2.58-2.42,13,13,0,0,0,1.82-3.79,16.68,16.68,0,0,0,.68-4.88c0-3.11-1-5.39-3-6.81a13.63,13.63,0,0,0-8.06-2.14,20.31,20.31,0,0,0-6.21.85,49.36,49.36,0,0,0-4.88,1.81l-4.2,1.82a10.68,10.68,0,0,1-4.23.84,7.89,7.89,0,0,1-2.7-.48,7.29,7.29,0,0,1-4.2-3.91,8.88,8.88,0,0,1,1.46-9.19,15.87,15.87,0,0,1,5.72-3.91,33.94,33.94,0,0,1,8.27-2.26,62.17,62.17,0,0,1,9.68-.73,25.69,25.69,0,0,1,9.75,1.74,21,21,0,0,1,7.22,4.71,20.25,20.25,0,0,1,4.48,7,23.58,23.58,0,0,1,1.53,8.51,20.74,20.74,0,0,1-1.25,7.29,17.54,17.54,0,0,1-3.51,5.81,15.87,15.87,0,0,1-5.4,3.83A17.09,17.09,0,0,1,143.24,174.89Z"
     transform="translate(-23.31 -88.46)"
     id="path972" />
  <path
     class="cls-4"
     d="M161.56,173.21a17.47,17.47,0,0,1,.68-4.9,14.88,14.88,0,0,1,1.77-4,9.65,9.65,0,0,1,2.55-2.68,5.28,5.28,0,0,1,3-1,5,5,0,0,1,3,.81,2.8,2.8,0,0,1,1.13,2.42,7,7,0,0,1-.26,2c-.17.58-.36,1.18-.58,1.8s-.41,1.28-.58,2A10,10,0,0,0,172,172a2,2,0,0,0,.33,1.26,1.55,1.55,0,0,0,1.29.42,3.76,3.76,0,0,0,1.67-.49c.65-.32,1.33-.67,2-1.06s1.41-.74,2.09-1.07a4.41,4.41,0,0,1,1.81-.48,2.3,2.3,0,0,1,2.52,2.58,6.65,6.65,0,0,1-1,2.77q-1,1.82-2.13,3.84c-.78,1.36-1.49,2.71-2.13,4.07a8.26,8.26,0,0,0-1,3.45,2.38,2.38,0,0,0,.45,1.45,2,2,0,0,0,1.68.61,5.55,5.55,0,0,0,1.87-.38,11.8,11.8,0,0,0,2.07-1,16.88,16.88,0,0,0,2-1.48,23.39,23.39,0,0,0,1.74-1.68c.73-.81,1.18-1.22,1.35-1.22.48,0,.71.17.71.51a2.2,2.2,0,0,1-.38,1.13,10.8,10.8,0,0,1-.71,1c-.65.78-1.41,1.6-2.29,2.49a20.58,20.58,0,0,1-2.88,2.38,17,17,0,0,1-3.35,1.78,10.18,10.18,0,0,1-3.74.71,5.49,5.49,0,0,1-3.9-1.55,6.25,6.25,0,0,1-1.65-4.78,11.23,11.23,0,0,1,1.13-4.83,35.92,35.92,0,0,1,3-5.1,20.92,20.92,0,0,1-4.29,2.16,11.27,11.27,0,0,1-3.58.61,4.44,4.44,0,0,1-3.81-2A8.17,8.17,0,0,1,161.56,173.21Z"
     transform="translate(-23.31 -88.46)"
     id="path974" />
  <path
     class="cls-4"
     d="M195.05,183.34a5.55,5.55,0,0,0,1.83,4.39,7.83,7.83,0,0,0,5.33,1.61,11,11,0,0,0,4.45-.9,20.4,20.4,0,0,0,3.61-2,29,29,0,0,0,2.55-2c.67-.6,1.13-.9,1.39-.9.55,0,.83.21.83.64a5,5,0,0,1-1.16,2.16,17.92,17.92,0,0,1-3.16,3.23A22,22,0,0,1,206,192.5a13.92,13.92,0,0,1-5.94,1.29,15,15,0,0,1-5.61-1,11.41,11.41,0,0,1-4-2.62,10.42,10.42,0,0,1-2.35-3.83,13.8,13.8,0,0,1-.78-4.65,18.76,18.76,0,0,1,1-5.84,17.45,17.45,0,0,1,2.81-5.29,15.3,15.3,0,0,1,4.38-3.84,11.28,11.28,0,0,1,5.78-1.48,6.7,6.7,0,0,1,3.19.74,6.87,6.87,0,0,1,2.29,1.94,8.42,8.42,0,0,1,1.36,2.71,10.5,10.5,0,0,1,.45,3,14.8,14.8,0,0,1-.74,4.71,14.23,14.23,0,0,1-1.91,3.8,10.08,10.08,0,0,1-2.54,2.55,4.8,4.8,0,0,1-2.62.94,8.48,8.48,0,0,1-3.67-.71A4.36,4.36,0,0,1,195.05,183.34Zm4.51-9.74a2.4,2.4,0,0,0-1.55.68,7.25,7.25,0,0,0-1.42,1.77,10.61,10.61,0,0,0-1,2.45,10,10,0,0,0-.39,2.78,6.88,6.88,0,0,0,2-.9,10,10,0,0,0,1.81-1.49,7,7,0,0,0,1.29-1.84,4.49,4.49,0,0,0,.48-2C200.72,174.1,200.34,173.6,199.56,173.6Zm1.61-21.93a16.67,16.67,0,0,1,2.17-4.81,3.77,3.77,0,0,1,3.19-1.77,2.4,2.4,0,0,1,2,.74,2.68,2.68,0,0,1,.61,1.77,5.65,5.65,0,0,1-.68,2.36,30.32,30.32,0,0,1-1.68,3c-.66,1.06-1.38,2.1-2.16,3.13s-1.48,2-2.13,2.78a7.69,7.69,0,0,1-.67.9,1.32,1.32,0,0,1-.94.58.82.82,0,0,1-.71-.26,1.68,1.68,0,0,1-.19-1,10.79,10.79,0,0,1,.1-1.23c.06-.56.13-1.18.22-1.87s.2-1.41.36-2.16S201,152.36,201.17,151.67Z"
     transform="translate(-23.31 -88.46)"
     id="path976" />
  <path
     class="cls-4"
     d="M240.85,168.83a22.59,22.59,0,0,1-1.13,7.35,35,35,0,0,1-2.94,6.39,5.9,5.9,0,0,0,4.52,1.87,5,5,0,0,0,2.16-.42,3.42,3.42,0,0,1,1.32-.42c.86,0,1.29.24,1.29.71a1.36,1.36,0,0,1-.45.81,6.52,6.52,0,0,1-1.19,1,7.07,7.07,0,0,1-1.68.81,5.66,5.66,0,0,1-1.9.32,9.28,9.28,0,0,1-5.81-1.93c-.38.6-.78,1.18-1.19,1.74l-1.26,1.74a14,14,0,0,1-3.84,3.81,8.86,8.86,0,0,1-4.61,1.1,4.62,4.62,0,0,1-3.55-1.39,9.79,9.79,0,0,1-2-3.55,25,25,0,0,1-1.1-4.71c-.23-1.7-.49-3.33-.77-4.9a27.28,27.28,0,0,0-1.07-4.2,4,4,0,0,0-2-2.48,1.21,1.21,0,0,0-.58-.13,1.77,1.77,0,0,1-.61-.1,1.17,1.17,0,0,1-.52-.35,1.38,1.38,0,0,1-.22-.9,5.3,5.3,0,0,1,.42-1.91,6.24,6.24,0,0,1,1.22-1.93,6.87,6.87,0,0,1,2.1-1.49,7.12,7.12,0,0,1,3-.61,5.27,5.27,0,0,1,3.94,1.52,10.8,10.8,0,0,1,2.35,3.84,22.79,22.79,0,0,1,1.23,5c.23,1.77.44,3.42.61,5s.36,2.83.55,3.84.5,1.52.94,1.52a2.3,2.3,0,0,0,1.74-1.1,15.94,15.94,0,0,0,1.42-2.19c.08-.18.17-.35.25-.52a4.45,4.45,0,0,1,.33-.52,18.33,18.33,0,0,1-1.81-5,27.84,27.84,0,0,1-.58-5.83,13.46,13.46,0,0,1,1.68-7.13,5.05,5.05,0,0,1,4.45-2.75,3.29,3.29,0,0,1,2.06.75,6.75,6.75,0,0,1,1.68,1.9,11.16,11.16,0,0,1,1.55,5.55Zm-7.1,3.35c0,.86,0,1.7.1,2.52a17,17,0,0,0,.35,2.39,21.14,21.14,0,0,0,1.1-3.29,16.9,16.9,0,0,0,.45-4.07,6,6,0,0,0-.16-1.16c-.11-.52-.33-.77-.68-.77a.75.75,0,0,0-.64.48,3.68,3.68,0,0,0-.36,1.16c-.06.45-.1.93-.12,1.42S233.75,171.8,233.75,172.18Z"
     transform="translate(-23.31 -88.46)"
     id="path978" />
  <path
     class="cls-4"
     d="M251.49,166a5.47,5.47,0,0,1,3.17,1,3,3,0,0,1,1.41,2.64,17.87,17.87,0,0,1-.41,3.58c-.28,1.31-.6,2.65-.94,4s-.66,2.68-.94,4a16.57,16.57,0,0,0-.42,3.48,4.2,4.2,0,0,0,.88,2.94,3.06,3.06,0,0,0,2.35.93,6.56,6.56,0,0,0,2.84-.74,11.07,11.07,0,0,0,3-2.22,12,12,0,0,0,1.32-1.52,1.16,1.16,0,0,1,.94-.61.66.66,0,0,1,.52.22.79.79,0,0,1,.19.49,2.75,2.75,0,0,1-.71,1.55c-.73.94-1.5,1.88-2.29,2.8a21.64,21.64,0,0,1-2.55,2.52,12.61,12.61,0,0,1-3,1.84,8.72,8.72,0,0,1-3.55.71,9,9,0,0,1-3.9-.78,7.53,7.53,0,0,1-2.71-2.09,9.2,9.2,0,0,1-1.61-3.13,13.4,13.4,0,0,1-.55-3.94c0-1.72,0-3.49.16-5.32s.34-3.8.68-5.9a13.71,13.71,0,0,1,.61-2.1,8.31,8.31,0,0,1,1.16-2.1A6.24,6.24,0,0,1,249,166.6,4.88,4.88,0,0,1,251.49,166ZM248,155.54a4.88,4.88,0,0,1,.61-2.36,7.2,7.2,0,0,1,1.62-2,7.77,7.77,0,0,1,2.29-1.38,6.94,6.94,0,0,1,2.64-.52,6.59,6.59,0,0,1,3.9,1.16,4.12,4.12,0,0,1,1.65,3.61,5.34,5.34,0,0,1-.61,2.55,6.09,6.09,0,0,1-1.68,1.94,7.71,7.71,0,0,1-2.45,1.22,10.36,10.36,0,0,1-3,.42,4.74,4.74,0,0,1-5-4.64Z"
     transform="translate(-23.31 -88.46)"
     id="path980" />
  <path
     class="cls-4"
     d="M275.56,145c1.63,0,2.73.46,3.29,1.39a8.67,8.67,0,0,1,.84,4.35,20.63,20.63,0,0,1-.52,3.84c-.34,1.66-.79,3.52-1.32,5.58s-1.11,4.26-1.71,6.58-1.17,4.61-1.71,6.84-1,4.36-1.32,6.36a30.39,30.39,0,0,0-.52,5.12,6.6,6.6,0,0,0,.42,2.62,1.74,1.74,0,0,0,1.77.93,6.67,6.67,0,0,0,3.2-.77,16.5,16.5,0,0,0,2.58-1.71,18.93,18.93,0,0,0,1.84-1.71c.47-.52.81-.77,1-.77a.4.4,0,0,1,.45.45,5.68,5.68,0,0,1-.94,2.26,19.19,19.19,0,0,1-2.51,3.32,16.88,16.88,0,0,1-3.74,3,8.86,8.86,0,0,1-4.62,1.29,7.39,7.39,0,0,1-5.93-2.68,10.75,10.75,0,0,1-2.26-7.19q0-3.42.16-7.32c.11-2.61.29-5.23.55-7.88s.58-5.24,1-7.8.86-5,1.42-7.26a13.49,13.49,0,0,1,1.35-3.39,14.11,14.11,0,0,1,2.07-2.8,9.68,9.68,0,0,1,2.51-1.94A5.76,5.76,0,0,1,275.56,145Z"
     transform="translate(-23.31 -88.46)"
     id="path982" />
  <path
     class="cls-4"
     d="M294.39,145c1.64,0,2.74.46,3.29,1.39a8.67,8.67,0,0,1,.84,4.35,20.45,20.45,0,0,1-.51,3.84q-.52,2.49-1.33,5.58t-1.7,6.58q-.92,3.5-1.71,6.84T291.94,180a31.33,31.33,0,0,0-.51,5.12,6.6,6.6,0,0,0,.42,2.62,1.74,1.74,0,0,0,1.77.93,6.6,6.6,0,0,0,3.19-.77,15.61,15.61,0,0,0,2.58-1.71,16.84,16.84,0,0,0,1.84-1.71c.48-.52.82-.77,1-.77a.4.4,0,0,1,.45.45,5.85,5.85,0,0,1-.94,2.26,19.19,19.19,0,0,1-2.51,3.32,16.94,16.94,0,0,1-3.75,3,8.85,8.85,0,0,1-4.61,1.29,7.39,7.39,0,0,1-5.93-2.68,10.75,10.75,0,0,1-2.26-7.19q0-3.42.16-7.32c.11-2.61.29-5.23.55-7.88s.58-5.24,1-7.8.86-5,1.42-7.26a13.52,13.52,0,0,1,1.36-3.39,14.48,14.48,0,0,1,2.06-2.8,9.9,9.9,0,0,1,2.52-1.94A5.69,5.69,0,0,1,294.39,145Z"
     transform="translate(-23.31 -88.46)"
     id="path984" />
  <path
     class="cls-4"
     d="M308.85,183.34a5.55,5.55,0,0,0,1.83,4.39,7.83,7.83,0,0,0,5.33,1.61,11,11,0,0,0,4.45-.9,20.4,20.4,0,0,0,3.61-2,29,29,0,0,0,2.55-2c.67-.6,1.13-.9,1.39-.9.55,0,.83.21.83.64a5,5,0,0,1-1.16,2.16,17.92,17.92,0,0,1-3.16,3.23,22,22,0,0,1-4.77,2.93,13.92,13.92,0,0,1-5.94,1.29,15,15,0,0,1-5.61-1,11.41,11.41,0,0,1-4-2.62,10.42,10.42,0,0,1-2.35-3.83,13.8,13.8,0,0,1-.78-4.65,18.76,18.76,0,0,1,1-5.84,17.45,17.45,0,0,1,2.81-5.29,15.3,15.3,0,0,1,4.38-3.84,11.28,11.28,0,0,1,5.78-1.48,6.7,6.7,0,0,1,3.19.74,6.87,6.87,0,0,1,2.29,1.94,8.42,8.42,0,0,1,1.36,2.71,10.5,10.5,0,0,1,.45,3,14.8,14.8,0,0,1-.74,4.71,14.23,14.23,0,0,1-1.91,3.8,10.08,10.08,0,0,1-2.54,2.55,4.8,4.8,0,0,1-2.62.94,8.48,8.48,0,0,1-3.67-.71A4.36,4.36,0,0,1,308.85,183.34Zm4.51-9.74a2.4,2.4,0,0,0-1.55.68,7.25,7.25,0,0,0-1.42,1.77,10.61,10.61,0,0,0-1,2.45,10,10,0,0,0-.39,2.78,6.88,6.88,0,0,0,2-.9,10,10,0,0,0,1.81-1.49,7,7,0,0,0,1.29-1.84,4.49,4.49,0,0,0,.48-2C314.52,174.1,314.14,173.6,313.36,173.6Z"
     transform="translate(-23.31 -88.46)"
     id="path986" />
</svg>
