<?xml version="1.0" encoding="UTF-8" standalone="no"?>
<!-- Generator: Adobe Illustrator 19.0.0, SVG Export Plug-In . SVG Version: 6.00 Build 0)  -->

<svg
   xmlns:dc="http://purl.org/dc/elements/1.1/"
   xmlns:cc="http://creativecommons.org/ns#"
   xmlns:rdf="http://www.w3.org/1999/02/22-rdf-syntax-ns#"
   xmlns:svg="http://www.w3.org/2000/svg"
   xmlns="http://www.w3.org/2000/svg"
   xmlns:sodipodi="http://sodipodi.sourceforge.net/DTD/sodipodi-0.dtd"
   xmlns:inkscape="http://www.inkscape.org/namespaces/inkscape"
   version="1.1"
   id="Capa_1"
   x="0px"
   y="0px"
   viewBox="0 0 512.002 512.002"
   style="enable-background:new 0 0 512.002 512.002;"
   xml:space="preserve"
   sodipodi:docname="rotate-phone.svg"
   inkscape:version="0.92.3 (2405546, 2018-03-11)"><metadata
   id="metadata961"><rdf:RDF><cc:Work
       rdf:about=""><dc:format>image/svg+xml</dc:format><dc:type
         rdf:resource="http://purl.org/dc/dcmitype/StillImage" /></cc:Work></rdf:RDF></metadata><defs
   id="defs959" /><sodipodi:namedview
   pagecolor="#ffffff"
   bordercolor="#666666"
   borderopacity="1"
   objecttolerance="10"
   gridtolerance="10"
   guidetolerance="10"
   inkscape:pageopacity="0"
   inkscape:pageshadow="2"
   inkscape:window-width="3840"
   inkscape:window-height="2034"
   id="namedview957"
   showgrid="false"
   inkscape:zoom="3.5429548"
   inkscape:cx="256.00101"
   inkscape:cy="256.00101"
   inkscape:window-x="0"
   inkscape:window-y="60"
   inkscape:window-maximized="1"
   inkscape:current-layer="Capa_1" />
<g
   id="g912"
   style="fill:#2c3e50;fill-opacity:1">
	<g
   id="g910"
   style="fill:#2c3e50;fill-opacity:1">
		<path
   d="M 459.649,278.626 233.377,52.354 c -12.512,-12.48 -32.736,-12.48 -45.248,0 L 52.353,188.13 c -12.48,12.48 -12.48,32.768 0,45.248 L 278.625,459.65 c 6.24,6.24 14.432,9.344 22.624,9.344 8.192,0 16.384,-3.136 22.624,-9.344 L 459.649,323.874 c 12.48,-12.48 12.48,-32.768 0,-45.248 z M 74.977,210.754 210.753,74.978 233.377,97.602 97.601,233.378 Z M 256.001,391.778 120.225,256.002 256.001,120.226 391.777,256.002 Z m 45.248,45.248 -22.624,-22.624 135.776,-135.776 22.624,22.624 z"
   id="path908"
   inkscape:connector-curvature="0"
   style="fill:#2c3e50;fill-opacity:1" />
	</g>
</g>
<g
   id="g918"
   style="fill:#2c3e50;fill-opacity:1">
	<g
   id="g916"
   style="fill:#2c3e50;fill-opacity:1">
		<path
   d="m 159.681,488.034 c -0.064,-0.384 0.064,-0.768 0,-1.184 l -16,-74.24 c -1.888,-8.64 -10.464,-14.144 -19.04,-12.256 -8.64,1.856 -14.112,10.368 -12.288,19.008 l 8.32,38.624 C 65.377,419.65 32.001,357.282 32.001,288.002 c 0,-8.832 -0.393993,13.07178 -16,13.07178 -15.32375652,0 -16,-21.90378 -16,-13.07178 0,76.032 35.008,144.576 93.248,189.248 l -46.208,2.784 c -8.8,0.544 -15.52,8.096 -15.008,16.928 0.512,8.48 7.552,15.04 15.968,15.04 0.32,0 0.64,0 0.96,-0.032 l 96,-5.76 c 0.16,0 0.288,-0.096 0.48,-0.128 0.64,-0.064 1.312,-0.064 1.952,-0.192 0.672,-0.16 1.184,-0.576 1.824,-0.8 0.928,-0.32 1.856,-0.608 2.688,-1.088 0.288,-0.16 0.544,-0.256 0.832,-0.448 0.672,-0.448 1.184,-1.024 1.792,-1.568 0.768,-0.704 1.472,-1.376 2.112,-2.208 0.512,-0.672 0.96,-1.376 1.344,-2.144 0.128,-0.256 0.416,-0.32 0.512,-0.576 0.128,-0.256 0.096,-0.512 0.192,-0.768 0.256,-0.608 0.416,-1.248 0.608,-1.888 0.224,-0.8 0.352,-1.568 0.448,-2.368 0.032,-0.672 0.128,-1.312 0.128,-1.984 0,-0.256 0.128,-0.48 0.096,-0.768 -0.032,-0.448 -0.256,-0.8 -0.288,-1.248 z"
   id="path914"
   inkscape:connector-curvature="0"
   style="fill:#2c3e50;fill-opacity:1"
   sodipodi:nodetypes="ccccccssscccsccccccsccsccccscc" />
	</g>
</g>
<g
   id="g924"
   style="opacity:1;fill:#2c3e50;fill-opacity:1">
	<g
   id="g922"
   style="fill:#2c3e50;fill-opacity:1">
		<path
   d="m 418.753,34.754 46.208,-2.784 c 8.8,-0.544 15.52,-8.096 15.008,-16.928 -0.512,-8.8 -7.136,-15.584 -16.928,-15.008 l -96,5.76 c -0.416,0.032 -0.768,0.256 -1.184,0.32 -0.416,0.064 -0.8,-0.064 -1.216,0 -0.352,0.064 -0.608,0.32 -0.96,0.416 -0.64,0.192 -1.248,0.384 -1.856,0.64 -0.672,0.288 -1.28,0.64 -1.92,1.024 -0.608,0.352 -1.184,0.704 -1.76,1.152 -0.48,0.384 -0.928,0.768 -1.376,1.216 -0.512,0.512 -0.928,1.056 -1.376,1.632 -0.48,0.608 -0.864,1.216 -1.248,1.888 -0.16,0.32 -0.48,0.512 -0.608,0.832 -0.128,0.256 -0.096,0.512 -0.192,0.768 -0.256,0.608 -0.416,1.248 -0.608,1.888 -0.224,0.8 -0.352,1.568 -0.448,2.4 -0.064,0.672 -0.16,1.312 -0.16,1.984 0,0.256 -0.128,0.512 -0.096,0.768 0.032,0.416 0.256,0.768 0.288,1.152 0.064,0.416 -0.064,0.832 0,1.248 l 16,74.24 c 1.664,7.52 8.288,12.64 15.648,12.64 1.12,0 2.272,-0.096 3.392,-0.352 8.64,-1.856 14.112,-10.368 12.288,-19.008 l -8.32,-38.656 c 55.296,38.368 88.672,100.736 88.672,170.016 1.97575,-10.64327 9.12347,-15.46087 16.5645,-15.32978 5.98405,0.10542 13.742,4.40426 15.4355,15.32978 0,-76.032 -35.008,-144.576 -93.248,-189.248 z"
   id="path920"
   inkscape:connector-curvature="0"
   style="fill:#2c3e50;fill-opacity:1"
   sodipodi:nodetypes="cccccscccccsccccccsccccsccccscc" />
	</g>
</g>
<g
   id="g926">
</g>
<g
   id="g928">
</g>
<g
   id="g930">
</g>
<g
   id="g932">
</g>
<g
   id="g934">
</g>
<g
   id="g936">
</g>
<g
   id="g938">
</g>
<g
   id="g940">
</g>
<g
   id="g942">
</g>
<g
   id="g944">
</g>
<g
   id="g946">
</g>
<g
   id="g948">
</g>
<g
   id="g950">
</g>
<g
   id="g952">
</g>
<g
   id="g954">
</g>
</svg>