<svg width="33" height="22" viewBox="0 0 33 22" fill="none" xmlns="http://www.w3.org/2000/svg">
<path d="M0 6C0 2.68629 2.68629 0 6 0H14V22H6C2.68629 22 0 19.3137 0 16V6Z" fill="white" fill-opacity="0.23"/>
<rect x="1" y="1" width="31" height="20" rx="5" stroke="#AFAFD0" stroke-width="2"/>
<path d="M27.3536 11.3536C27.5488 11.1583 27.5488 10.8417 27.3536 10.6464L24.1716 7.46447C23.9763 7.2692 23.6597 7.2692 23.4645 7.46447C23.2692 7.65973 23.2692 7.97631 23.4645 8.17157L26.2929 11L23.4645 13.8284C23.2692 14.0237 23.2692 14.3403 23.4645 14.5355C23.6597 14.7308 23.9763 14.7308 24.1716 14.5355L27.3536 11.3536ZM19 11.5L27 11.5V10.5L19 10.5V11.5Z" fill="white"/>
<path d="M14 1V22" stroke="#AFAFD0" stroke-width="2"/>
</svg>