<svg xmlns="http://www.w3.org/2000/svg" viewBox="0 0 36 36">
  <g id="House">
    <circle cx="18" cy="18" r="16" fill="none" stroke="#fff" stroke-miterlimit="10" stroke-width="2"/>
    <path d="M15.93,16.58h.73c2,0,4.51-.45,4.51-3.45a3.15,3.15,0,0,0-3.39-3.27,3.79,3.79,0,0,0-3.64,2.21l-2.27-.87a5.92,5.92,0,0,1,5.74-3.36c3.16,0,5.91,1.76,5.91,5.18a4.81,4.81,0,0,1-3.39,4.54v.05a4.83,4.83,0,0,1,4.06,5c0,3.78-3,5.74-6.55,5.74-3,0-5.38-1.24-6.39-4.18l2.38-.78a3.64,3.64,0,0,0,4,2.94,3.87,3.87,0,0,0,4-3.89c0-2.91-2.58-3.84-5-3.84h-.73Z" fill="#fff" stroke="#fff" stroke-miterlimit="10"/>
  </g>
</svg>
