<svg xmlns="http://www.w3.org/2000/svg" viewBox="0 0 36 36">
  <g id="Home_-_Dark" data-name="Home - Dark">
    <circle id="circle" cx="18" cy="18" r="16" fill="none" stroke="#fff" stroke-miterlimit="10" stroke-width="2"/>
    <path id="contents" d="M15.55,25.25V19.62h4.89v5.63a1.19,1.19,0,0,0,1.23,1.13h3.66a1.19,1.19,0,0,0,1.23-1.13V17.37h2.08a.55.55,0,0,0,.4-1L18.82,6.91a1.32,1.32,0,0,0-1.64,0L7,16.39a.55.55,0,0,0,.4,1H9.44v7.88a1.18,1.18,0,0,0,1.22,1.13h3.67A1.18,1.18,0,0,0,15.55,25.25Z" fill="#fff" stroke="#fff" stroke-miterlimit="10"/>
  </g>
</svg>
