<svg xmlns="http://www.w3.org/2000/svg" viewBox="0 0 36 36">
  <g id="House">
    <circle cx="18" cy="18" r="16" fill="none" stroke="#fff" stroke-miterlimit="10" stroke-width="2"/>
    <path d="M16.54,21.69c0-2.07.48-2.49,1.94-4,1.14-1.17,2.43-2.24,2.43-4a2.83,2.83,0,0,0-3-3.05,3.34,3.34,0,0,0-3.41,3.05L12,13.46a5.65,5.65,0,0,1,6-4.79c3.05,0,5.46,1.77,5.46,5,0,2.46-1.51,3.83-3.19,5.4a3.24,3.24,0,0,0-1.34,3.11v1.29H16.54Zm2.86,5.8a1.68,1.68,0,0,1-3.36,0,1.68,1.68,0,1,1,3.36,0Z" fill="#fff" stroke="#fff" stroke-miterlimit="10"/>
  </g>
</svg>
